<svg height="24" viewBox="0 0 67 72" fill="#5f6368" xmlns="http://www.w3.org/2000/svg">
<rect height="24"/>
<path d="M1.89489 72V19.6364H9.94034V72H1.89489ZM5.9858 10.9091C4.41761 10.9091 3.06534 10.375 1.92898 9.30682C0.815341 8.23864 0.258523 6.95455 0.258523 5.45455C0.258523 3.95455 0.815341 2.67045 1.92898 1.60227C3.06534 0.53409 4.41761 0 5.9858 0C7.55398 0 8.89489 0.53409 10.0085 1.60227C11.1449 2.67045 11.7131 3.95455 11.7131 5.45455C11.7131 6.95455 11.1449 8.23864 10.0085 9.30682C8.89489 10.375 7.55398 10.9091 5.9858 10.9091ZM32.7216 40.5V72H24.6761V19.6364H32.4489V27.8182H33.1307C34.358 25.1591 36.2216 23.0227 38.7216 21.4091C41.2216 19.7727 44.4489 18.9545 48.4034 18.9545C51.9489 18.9545 55.0511 19.6818 57.7102 21.1364C60.3693 22.5682 62.4375 24.75 63.9148 27.6818C65.392 30.5909 66.1307 34.2727 66.1307 38.7273V72H58.0852V39.2727C58.0852 35.1591 57.017 31.9545 54.8807 29.6591C52.7443 27.3409 49.8125 26.1818 46.0852 26.1818C43.517 26.1818 41.2216 26.7386 39.1989 27.8523C37.1989 28.9659 35.6193 30.5909 34.4602 32.7273C33.3011 34.8636 32.7216 37.4545 32.7216 40.5Z"/>
</svg>
